<?xml version="1.0" standalone="no"?>
<!DOCTYPE svg PUBLIC "-//W3C//DTD SVG 20010904//EN"
 "http://www.w3.org/TR/2001/REC-SVG-20010904/DTD/svg10.dtd">
<svg version="1.0" xmlns="http://www.w3.org/2000/svg"
 width="270.000000pt" height="200.000000pt" viewBox="0 0 270.000000 200.000000"
 preserveAspectRatio="xMidYMid meet">

<g transform="translate(0.000000,200.000000) scale(0.100000,-0.100000)"
fill="#000000" stroke="none">
<path d="M2470 1988 c0 -5 7 -8 15 -8 9 0 15 -9 15 -21 0 -18 -4 -20 -27 -15
-21 5 -24 4 -13 -4 13 -9 12 -12 -4 -25 -22 -16 -10 -20 14 -5 9 6 17 5 22 -3
6 -9 10 -9 16 -1 5 9 10 8 19 -2 8 -8 9 -15 3 -19 -6 -3 -10 -3 -10 2 0 4 -11
9 -23 9 -20 1 -23 -2 -19 -22 3 -17 0 -24 -12 -24 -9 0 -16 -4 -16 -10 0 -5 7
-10 15 -10 8 0 15 -9 15 -20 0 -11 -7 -23 -15 -26 -10 -4 -15 -19 -14 -43 l1
-36 9 33 c5 18 14 30 20 26 6 -4 5 -11 -3 -22 -10 -12 -10 -16 0 -19 6 -3 12
-12 12 -21 0 -11 12 -4 40 23 22 21 43 36 47 32 3 -4 7 -23 7 -42 1 -21 6 -35
14 -35 6 0 12 4 12 10 0 18 28 -1 34 -23 7 -27 -2 -36 -15 -17 -8 11 -12 12
-16 3 -5 -15 -63 10 -76 34 -5 7 -12 11 -18 8 -5 -4 -19 -8 -31 -10 -12 -3
-24 -9 -27 -14 -3 -4 -25 -12 -48 -16 -23 -3 -47 -13 -53 -20 -6 -8 -17 -11
-25 -9 -10 4 -12 -4 -8 -38 3 -32 2 -39 -6 -28 -9 12 -11 11 -11 -7 0 -29 -10
-29 -45 -1 -27 21 -28 21 -16 0 9 -17 8 -22 -7 -26 -14 -5 -17 -14 -14 -35 2
-16 -1 -38 -8 -50 -13 -26 -4 -61 16 -61 8 0 14 -9 14 -19 0 -24 16 -36 23
-19 3 9 9 7 21 -7 19 -24 16 -39 -10 -44 -10 -2 -22 -8 -26 -15 -11 -16 -10
-38 2 -31 6 3 10 1 10 -4 0 -6 -4 -11 -9 -11 -16 0 -24 -42 -10 -50 7 -5 -1
-8 -21 -7 -28 2 -34 -2 -40 -24 -8 -27 12 -84 35 -102 6 -6 4 -7 -5 -4 -8 2
-24 1 -35 -3 -11 -4 -26 -3 -34 4 -11 8 -13 8 -7 -1 8 -14 8 -14 -122 -17 -58
-1 -87 3 -95 12 -11 14 -14 72 -4 89 9 15 -3 70 -17 82 -22 19 -53 1 -64 -37
-8 -26 -8 -38 0 -43 6 -4 7 -12 3 -20 -6 -9 -4 -11 8 -6 18 7 33 -8 18 -17 -4
-3 -11 -18 -14 -34 -5 -26 -9 -28 -37 -24 -25 4 -35 12 -46 38 -8 18 -14 44
-14 58 0 13 -4 26 -9 28 -5 2 -11 10 -13 18 -2 8 -9 21 -15 28 -16 16 -17 32
-2 32 11 0 39 24 39 34 0 15 -76 -5 -90 -24 -19 -25 -30 -17 -30 23 0 28 -1
29 -37 23 -21 -3 -95 -8 -165 -12 l-126 -6 -16 30 -15 30 37 6 c20 3 66 6 102
6 36 0 124 5 196 12 92 8 147 8 183 1 47 -9 51 -9 51 9 0 22 4 22 -399 -3
-150 -9 -206 -9 -209 -1 -2 6 -9 9 -15 6 -7 -2 -18 5 -25 17 -11 18 -11 24 2
38 11 12 13 20 5 28 -7 7 -5 15 6 27 16 15 16 18 1 41 -9 14 -21 25 -26 25 -6
0 -10 5 -10 11 0 6 9 8 20 4 25 -8 27 13 3 31 -25 19 -33 17 -34 -8 0 -20 -2
-19 -11 7 -8 21 -8 30 0 33 17 5 15 29 -4 36 -9 3 -12 11 -8 18 5 7 2 9 -9 5
-12 -5 -15 1 -14 26 2 28 -1 32 -25 32 -24 1 -27 -2 -22 -22 4 -15 1 -25 -9
-29 -9 -3 -13 -12 -11 -19 8 -20 35 -27 51 -13 11 9 16 9 24 -3 5 -8 9 -17 9
-20 0 -11 -105 3 -112 15 -7 10 -12 -6 -9 -26 2 -16 -38 -7 -48 10 -9 16 -10
16 -16 0 -11 -29 1 -46 27 -41 15 3 29 -2 37 -11 8 -9 27 -16 43 -16 17 0 27
-4 23 -10 -3 -5 -17 -10 -31 -10 -13 0 -24 5 -24 10 0 6 -7 10 -15 10 -8 0
-15 -4 -15 -10 0 -5 -7 -10 -15 -10 -8 0 -15 -5 -15 -12 0 -6 -3 -9 -6 -5 -3
3 -20 -9 -36 -27 -33 -37 -58 -38 -73 -4 -6 12 -19 22 -30 23 -11 1 -24 3 -30
5 -5 1 -20 2 -33 1 -19 -1 -21 -4 -12 -20 14 -27 13 -36 -4 -22 -12 10 -13 9
-9 -7 4 -16 -5 -25 -43 -44 -54 -27 -72 -53 -29 -42 26 6 27 6 20 -25 -4 -20
-3 -31 5 -31 6 0 9 -4 6 -9 -3 -4 -83 -11 -177 -15 -94 -4 -199 -9 -233 -11
-49 -3 -56 -2 -36 6 14 6 70 13 125 16 100 6 135 14 135 34 0 7 -17 8 -51 4
-49 -7 -51 -6 -44 14 6 18 2 21 -27 22 -18 1 -48 0 -67 -1 -18 -1 -37 4 -41
10 -4 7 -13 9 -20 5 -9 -6 -9 -9 1 -16 15 -9 -4 -13 -51 -9 -25 2 -85 50 -62
50 17 0 15 29 -2 36 -8 3 -12 12 -9 20 3 8 0 14 -6 14 -7 0 -25 10 -40 21 -17
13 -34 18 -42 14 -7 -5 -10 -4 -6 2 4 6 -3 13 -14 16 -15 4 -19 2 -15 -8 3 -8
1 -17 -4 -20 -6 -4 -10 -147 -10 -364 l0 -358 29 5 c29 4 30 3 25 -34 -3 -22
-6 -48 -8 -59 -2 -11 -4 -24 -5 -28 0 -5 -5 -6 -11 -2 -5 3 -6 13 -3 22 4 11
2 14 -8 11 -12 -4 -14 -65 -17 -361 l-2 -357 1145 0 1145 0 -2 182 c-3 154 -5
183 -18 184 -8 1 -32 2 -52 2 -33 2 -38 5 -38 27 0 22 5 25 51 31 44 6 50 9
47 28 -2 12 -10 20 -17 18 -8 -2 -18 3 -22 10 -7 10 -9 10 -9 1 0 -7 -5 -13
-11 -13 -8 0 -8 4 0 14 18 21 102 31 115 14 6 -8 18 -17 26 -21 9 -3 4 -6 -12
-6 -14 -1 -29 5 -31 12 -3 6 -6 -100 -6 -236 l-1 -248 195 1 195 2 0 204 c-1
112 -3 204 -5 204 -2 0 -15 -4 -30 -10 -17 -7 -24 -7 -20 0 4 7 -2 7 -19 0
-17 -6 -27 -6 -32 1 -4 6 -11 6 -20 -2 -8 -6 -27 -9 -43 -7 -18 3 -28 0 -24
-6 4 -5 -1 -7 -11 -3 -10 4 -29 7 -42 7 -14 0 -22 4 -19 10 3 6 -1 10 -9 10
-8 0 -17 -4 -20 -8 -3 -5 -23 -9 -46 -10 -36 -2 -40 1 -40 22 0 22 4 24 57 25
31 0 63 -5 70 -11 8 -6 30 -8 56 -4 23 4 76 12 117 19 l75 12 3 95 3 95 -63 0
c-75 -1 -108 4 -108 16 0 4 38 5 84 2 l84 -6 1 181 0 181 -30 -11 c-23 -8 -33
-7 -42 2 -9 10 -9 14 1 17 6 3 12 13 12 24 0 11 7 19 16 19 11 0 14 -6 9 -20
-8 -24 1 -26 23 -4 15 15 14 17 -3 30 -10 7 -22 11 -26 8 -5 -3 -9 0 -9 6 0 8
9 10 25 6 l25 -6 -1 375 c-1 210 -5 378 -10 381 -5 3 -9 10 -9 15 0 6 5 7 10
4 6 -4 10 20 10 64 l0 71 -52 -1 c-29 -1 -45 -3 -35 -6 18 -5 25 -43 7 -43 -5
0 -21 12 -36 28 -15 15 -23 21 -20 15 5 -9 0 -13 -16 -13 -17 0 -20 2 -9 9 10
6 1 9 -27 8 -23 -1 -42 -5 -42 -9z m180 -62 c0 -3 -4 -8 -10 -11 -5 -3 -10 -1
-10 4 0 6 5 11 10 11 6 0 10 -2 10 -4z m6 -42 c-3 -8 -2 -23 4 -33 8 -16 6
-17 -16 -13 -35 6 -39 20 -13 43 27 23 33 24 25 3z m-123 -13 c17 -6 17 -8 -2
-33 -12 -14 -21 -31 -21 -36 0 -6 -4 -13 -9 -16 -7 -5 -9 75 -2 92 2 3 15 1
34 -7z m2 -111 c-3 -5 -14 -10 -23 -9 -14 0 -13 2 3 9 27 11 27 11 20 0z
m-1439 -96 c-12 -13 -26 -9 -26 7 0 6 5 7 10 4 6 -3 10 4 11 17 0 21 1 21 8 3
5 -11 3 -24 -3 -31z m1594 -34 c0 -5 -4 -10 -10 -10 -5 0 -10 5 -10 10 0 6 5
10 10 10 6 0 10 -4 10 -10z m-300 -10 c0 -5 -4 -10 -10 -10 -5 0 -10 5 -10 10
0 6 5 10 10 10 6 0 10 -4 10 -10z m230 0 c0 -5 -4 -10 -10 -10 -5 0 -10 5 -10
10 0 6 5 10 10 10 6 0 10 -4 10 -10z m-30 -16 c0 -10 -6 -14 -15 -10 -8 3 -15
1 -15 -4 0 -5 -8 -6 -17 -3 -11 4 -13 8 -5 11 7 2 10 8 6 13 -3 5 6 9 20 9 17
0 26 -5 26 -16z m70 -4 c0 -5 -6 -10 -12 -10 -10 0 -9 -3 1 -9 10 -6 11 -13 3
-27 -8 -15 -6 -24 10 -41 23 -24 18 -53 -8 -53 -13 0 -14 3 -5 14 15 18 -6 28
-31 15 -13 -7 -19 -2 -30 21 -7 17 -16 30 -20 30 -5 0 -8 4 -8 9 0 10 34 8 64
-5 16 -6 18 -4 13 11 -9 21 0 55 14 55 5 0 9 -4 9 -10z m-190 -19 c0 -24 -16
-36 -26 -19 -4 6 -2 14 4 16 7 2 10 8 6 13 -3 5 0 9 5 9 6 0 11 -9 11 -19z
m50 -41 c0 -5 -7 -7 -15 -4 -8 4 -15 8 -15 10 0 2 7 4 15 4 8 0 15 -4 15 -10z
m-1327 -25 c-3 -9 -8 -14 -10 -11 -3 3 -2 9 2 15 9 16 15 13 8 -4z m-93 -45
c0 -5 -2 -10 -4 -10 -3 0 -8 5 -11 10 -3 6 -1 10 4 10 6 0 11 -4 11 -10z
m1460 -51 c0 -12 -87 -12 -95 0 -3 6 14 11 37 13 48 3 58 1 58 -13z m96 6
c-22 -17 -36 -19 -36 -7 0 14 12 22 34 22 21 -1 21 -1 2 -15z m-66 -44 c0 -5
-7 -14 -15 -21 -8 -7 -15 -19 -15 -26 0 -23 -47 -17 -53 6 -3 13 0 20 9 20 8
0 14 -5 14 -10 0 -7 8 -6 22 1 14 8 18 14 10 17 -6 2 -10 8 -6 13 7 12 34 12
34 0z m-225 -56 c3 -22 9 -56 14 -75 8 -31 9 -26 10 36 1 75 5 86 27 77 20 -7
17 -23 -3 -24 -11 0 -13 -3 -5 -6 6 -2 9 -9 6 -14 -10 -17 -16 -69 -7 -69 4 0
9 -48 10 -108 1 -106 1 -106 -8 -37 -14 106 -18 101 -12 -15 4 -97 3 -103 -11
-86 -14 17 -16 18 -16 3 0 -9 -4 -17 -10 -17 -5 0 -13 -1 -17 -2 -12 -5 -15
150 -3 157 5 3 10 -1 10 -9 0 -9 5 -16 11 -16 11 0 8 132 -4 160 -8 17 -11 46
-9 74 3 29 11 15 17 -29z m266 18 c8 -8 5 -13 -10 -18 -26 -8 -42 1 -35 19 6
16 29 15 45 -1z m39 -3 c0 -5 -4 -10 -10 -10 -5 0 -10 5 -10 10 0 6 5 10 10
10 6 0 10 -4 10 -10z m-1980 -51 c0 -5 5 -7 10 -4 6 3 10 -1 10 -9 0 -8 -5
-18 -10 -21 -18 -11 -415 -25 -418 -15 -2 6 -12 10 -22 10 -23 0 -36 18 -18
25 15 6 266 21 376 24 45 0 72 -3 72 -10z m807 -45 c-3 -3 -12 -4 -19 -1 -8 3
-5 6 6 6 11 1 17 -2 13 -5z m1097 -29 c-4 -11 -9 -26 -12 -34 -3 -9 -1 -12 6
-7 14 9 27 -33 13 -47 -6 -6 -7 -16 -1 -27 5 -10 8 -68 7 -131 l-2 -114 -27 0
c-16 1 -28 -4 -28 -10 0 -5 -4 -4 -9 4 -5 8 -9 41 -9 75 -1 34 -1 66 -1 73 -1
6 -18 13 -38 15 -21 2 -37 6 -35 11 1 4 2 34 2 67 l0 60 40 0 c40 0 40 0 40
38 0 46 3 50 35 48 20 -1 24 -5 19 -21z m-1024 -9 c0 -8 -13 -28 -29 -45 -16
-17 -26 -33 -21 -36 8 -5 -4 -88 -16 -106 -3 -5 -10 -7 -15 -3 -5 3 -7 9 -4
14 3 5 1 11 -5 15 -13 8 -13 71 0 95 6 11 17 17 25 14 11 -5 15 1 15 24 0 28
7 35 43 41 4 0 7 -5 7 -13z m-123 -63 c-3 -10 -5 -2 -5 17 0 19 2 27 5 18 2
-10 2 -26 0 -35z m-44 -5 c7 -7 13 -41 14 -76 1 -53 -1 -62 -14 -58 -8 3 -23
6 -33 6 -15 0 -17 6 -13 39 4 32 1 41 -17 54 -19 14 -21 19 -10 32 15 18 57
20 73 3z m-793 -58 l0 -60 -35 0 -35 0 0 50 c0 46 2 50 24 50 14 0 28 5 31 10
12 19 15 9 15 -50z m-90 -5 c0 -54 0 -55 -30 -55 -29 0 -30 1 -30 49 0 46 2
50 28 54 15 2 28 5 30 6 1 0 2 -24 2 -54z m134 15 c-1 -29 -14 -57 -14 -30 0
7 -3 10 -6 7 -4 -4 -1 -13 6 -22 10 -12 10 -15 -4 -15 -12 0 -16 10 -16 43 0
24 3 46 6 50 13 13 29 -5 28 -33z m-293 18 c-1 -5 -1 -26 -1 -49 0 -36 -2 -40
-22 -37 -27 4 -36 44 -18 78 10 19 42 25 41 8z m79 -38 c0 -49 -1 -50 -29 -50
-28 0 -29 2 -29 50 -1 49 0 50 29 50 28 0 29 -1 29 -50z m684 -45 c-7 -17 -20
-20 -28 -6 -7 10 3 21 20 21 8 0 11 -6 8 -15z m1293 -52 c-3 -10 -5 -2 -5 17
0 19 2 27 5 18 2 -10 2 -26 0 -35z m-97 2 c0 -8 -4 -15 -10 -15 -5 0 -7 7 -4
15 4 8 8 15 10 15 2 0 4 -7 4 -15z m-519 -9 c5 3 9 -4 9 -16 0 -12 -4 -19 -9
-16 -5 3 -12 -1 -15 -10 -4 -12 -2 -15 9 -10 17 6 21 -9 5 -19 -16 -10 -50 5
-50 21 0 19 34 65 38 53 2 -5 8 -7 13 -3z m-398 -19 c4 3 7 -8 7 -25 0 -25 -4
-32 -20 -32 -11 0 -20 5 -20 12 0 6 -3 9 -6 6 -3 -4 -1 -15 5 -26 9 -17 7 -21
-12 -26 -35 -9 -69 -7 -62 4 4 6 -10 10 -35 10 -39 0 -40 1 -34 28 7 28 20 42
41 42 15 0 35 -35 26 -44 -3 -3 1 -6 10 -6 10 0 17 8 17 20 0 13 9 22 25 26
14 3 25 14 25 23 1 14 2 14 14 -1 7 -10 16 -15 19 -11z m96 -37 c1 -9 -8 -16
-19 -17 -15 -1 -20 4 -19 20 1 17 2 18 6 4 7 -28 24 -9 18 21 -4 23 -4 24 4 7
5 -11 10 -27 10 -35z m534 -16 c-4 -10 4 -14 30 -14 35 0 36 1 40 43 3 34 4
31 5 -19 l2 -60 -42 0 c-51 1 -70 14 -57 38 5 9 9 32 10 50 l1 33 8 -28 c5
-16 6 -35 3 -43z m-1441 29 c-6 -11 -7 -36 -3 -60 10 -52 -4 -80 -15 -32 -10
45 -6 87 9 104 16 17 21 11 9 -12z m596 -6 c-1 -19 3 -40 7 -48 7 -11 5 -11
-10 1 -14 11 -19 12 -22 3 -3 -7 -15 -13 -28 -13 -29 0 -41 27 -16 35 10 3 18
13 17 22 0 10 9 20 24 24 14 4 26 7 27 8 1 1 2 -14 1 -32z m385 -18 c3 -12 0
-19 -8 -19 -26 0 -45 12 -45 30 0 24 46 15 53 -11z m-783 11 c0 -5 -5 -10 -11
-10 -5 0 -7 5 -4 10 3 6 8 10 11 10 2 0 4 -4 4 -10z m64 -37 c-3 -59 -4 -61
-18 -23 -8 22 -9 42 -4 53 13 27 23 13 22 -30z m1326 15 c0 -4 -11 -19 -25
-34 l-25 -27 0 24 c0 34 30 76 41 58 5 -8 9 -17 9 -21z m-1740 13 c0 -5 3 -16
6 -25 4 -10 1 -16 -7 -16 -7 0 -9 3 -6 6 3 4 2 15 -4 25 -6 13 -6 19 1 19 5 0
10 -4 10 -9z m504 3 c20 -8 21 -30 1 -38 -9 -3 -15 0 -15 10 0 8 -4 12 -10 9
-5 -3 -10 1 -10 9 0 17 9 20 34 10z m-874 -14 c0 -5 -4 -10 -10 -10 -5 0 -10
5 -10 10 0 6 5 10 10 10 6 0 10 -4 10 -10z m737 -12 c-3 -8 -6 -5 -6 6 -1 11
2 17 5 13 3 -3 4 -12 1 -19z m213 2 c0 -14 -7 -20 -22 -20 -19 0 -20 2 -8 10
8 5 11 10 7 10 -11 0 2 20 14 20 5 0 9 -9 9 -20z m422 -19 c-3 -28 -8 -38 -17
-34 -8 2 -11 11 -9 18 3 7 -3 15 -13 18 -16 4 -15 6 5 12 12 4 22 11 22 16 0
5 3 9 8 9 4 0 6 -18 4 -39z m427 8 c-19 -11 -24 -3 -8 14 8 9 16 11 18 5 2 -6
-3 -14 -10 -19z m361 7 c0 -3 -4 -8 -10 -11 -5 -3 -10 -1 -10 4 0 6 5 11 10
11 6 0 10 -2 10 -4z m-1156 -22 c3 -8 10 -12 16 -9 5 3 10 -1 10 -9 0 -10 -9
-16 -22 -16 -17 0 -23 6 -24 25 -2 28 11 34 20 9z m752 -42 c-3 -3 -6 0 -6 6
0 7 -7 9 -17 5 -13 -5 -15 -2 -10 11 4 10 7 23 7 29 1 7 8 -1 16 -16 9 -16 13
-31 10 -35z m433 30 c-2 -15 0 -32 4 -39 10 -16 183 -17 193 -1 5 8 1 9 -12 4
-14 -5 -16 -4 -8 4 14 14 106 21 125 9 10 -6 7 -9 -13 -10 -16 -1 -32 -3 -38
-4 -5 -1 -18 -4 -27 -5 -23 -3 52 -19 93 -19 24 -1 33 4 39 22 4 12 7 24 7 27
0 3 8 7 19 7 11 1 19 -1 16 -5 -2 -4 -9 -22 -16 -40 l-13 -32 -62 4 c-33 2
-85 7 -115 11 -40 6 -52 5 -47 -3 5 -8 2 -10 -8 -6 -10 4 -16 1 -16 -9 0 -9
-13 -24 -30 -34 -16 -9 -30 -22 -31 -28 0 -5 -5 1 -10 14 -8 19 -12 21 -24 11
-13 -10 -15 -9 -15 11 0 19 -2 21 -10 9 -7 -11 -11 -9 -19 13 -14 35 -23 35
-15 0 4 -16 4 -25 0 -21 -4 3 -21 2 -37 -2 -16 -5 -29 -5 -29 0 0 12 -35 18
-53 9 -22 -13 -78 -18 -71 -7 3 5 12 7 20 4 8 -3 14 -1 14 5 0 5 6 9 13 8 23
-3 38 1 33 9 -2 4 15 14 40 21 24 7 44 19 44 27 0 7 5 16 12 20 8 5 9 0 6 -14
-4 -14 -2 -22 7 -22 8 0 16 17 20 40 8 45 18 55 14 12z m-1474 -10 c5 -11 18
-23 28 -26 10 -2 23 -18 30 -35 15 -42 27 -39 28 7 0 28 2 32 8 17 5 -11 5
-32 0 -47 -6 -21 -4 -28 7 -28 8 0 14 10 14 25 0 15 6 25 14 25 8 0 17 -11 20
-25 4 -14 13 -25 22 -25 8 0 12 5 9 10 -4 6 7 10 27 9 27 0 30 -2 13 -9 -19
-8 -19 -9 2 -9 14 -1 21 -6 17 -14 -2 -7 -17 -13 -32 -12 -15 0 -32 -6 -37
-13 -6 -8 -31 -15 -55 -17 -65 -4 -65 -4 -54 -14 16 -16 109 -17 99 -1 -10 16
42 23 67 8 12 -8 32 -14 43 -14 11 1 23 -3 26 -8 4 -5 20 -9 37 -10 16 0 28
-5 26 -11 -5 -13 -64 -17 -64 -5 0 5 -7 7 -15 4 -8 -4 -22 -1 -31 6 -11 10
-18 10 -26 2 -13 -13 -11 -14 62 -31 68 -15 154 -28 305 -46 109 -13 293 -17
299 -7 5 8 1 10 -11 5 -15 -6 -16 -4 -6 9 7 8 10 17 8 20 -10 10 66 17 88 8
l22 -8 -25 -11 c-19 -8 -20 -10 -5 -9 11 2 26 -2 34 -6 11 -7 13 -5 8 7 -4 10
-1 17 6 18 7 0 19 2 27 3 8 2 24 0 35 -4 17 -6 16 -8 -11 -14 -24 -5 -33 -15
-42 -41 -5 -19 -6 -35 -2 -35 5 0 12 9 15 20 5 15 12 19 25 15 10 -3 21 -1 25
5 5 8 11 8 20 0 8 -7 22 -9 32 -6 10 3 34 1 53 -3 19 -5 27 -9 18 -10 -10 -1
-18 -4 -18 -8 0 -5 33 -8 72 -8 58 0 73 -3 76 -16 2 -12 -8 -15 -53 -16 -42
-1 -60 -5 -71 -19 -13 -18 -15 -18 -28 -1 -15 19 -47 22 -63 6 -9 -9 -18 -6
-37 9 -21 16 -35 19 -68 14 -33 -4 -40 -2 -36 9 7 19 -35 20 -54 2 -17 -18
-29 -16 -22 2 4 8 1 15 -5 15 -6 0 -11 -7 -11 -15 0 -8 -5 -15 -11 -15 -8 0
-8 -5 1 -15 7 -8 9 -16 4 -16 -5 -1 -13 -2 -19 -4 -5 -1 -15 -3 -21 -3 -7 -1
-14 -11 -17 -22 -4 -14 -13 -20 -34 -19 l-28 0 23 16 c26 19 29 33 5 33 -12 0
-18 8 -19 26 -2 22 1 25 20 19 49 -16 97 -1 81 25 -6 9 -30 10 -89 5 -44 -4
-138 -9 -208 -11 -104 -3 -127 -1 -132 11 -3 8 -13 15 -21 15 -9 0 -14 -4 -10
-9 8 -14 -24 -21 -65 -16 -55 7 -308 7 -320 0 -5 -3 -10 1 -10 10 0 13 -4 14
-20 5 -16 -9 -20 -8 -20 5 0 11 11 15 39 15 23 0 46 7 55 16 18 17 21 28 6 19
-5 -3 -10 -2 -10 4 0 6 15 15 33 20 30 9 30 9 6 10 -15 1 -29 8 -33 16 -8 23
-21 18 -35 -12 l-13 -28 -23 28 c-16 22 -24 25 -28 14 -3 -9 -15 -12 -36 -9
-20 3 -31 0 -31 -8 0 -8 -5 -7 -14 3 -11 10 -35 13 -98 10 -45 -2 -84 -8 -86
-13 -2 -6 -12 -10 -22 -10 -10 0 -21 -7 -24 -16 -6 -15 -8 -15 -25 0 -11 10
-22 13 -25 8 -3 -6 -1 -12 5 -14 9 -3 9 -9 0 -26 -14 -26 -4 -29 15 -5 7 10
16 14 21 9 4 -5 2 -11 -5 -13 -10 -4 -9 -8 4 -17 15 -12 15 -13 -6 -12 -20 1
-23 -4 -26 -59 -3 -50 -4 -164 -2 -184 3 -29 -6 -250 -9 -231 -3 14 -9 29 -14
34 -5 6 -9 101 -9 212 0 153 -3 204 -12 207 -10 4 -10 8 -2 14 6 4 13 27 15
49 4 39 3 42 -18 38 -13 -3 -26 2 -31 13 -9 14 -13 15 -26 4 -14 -11 -16 -11
-16 3 0 9 9 17 20 17 29 2 33 3 49 13 8 5 45 8 84 7 51 -2 67 1 62 9 -4 7 -1
16 6 21 9 6 2 7 -21 5 -54 -6 -57 -7 -30 -16 l25 -8 -27 -1 c-16 -1 -28 4 -28
9 0 6 -17 11 -37 11 -36 1 -35 2 12 10 28 5 71 10 97 11 31 2 48 8 48 16 0 10
-12 12 -47 8 -27 -3 -43 -2 -37 2 6 4 16 16 23 27 7 11 10 13 8 4 -4 -12 0
-15 21 -11 24 5 25 6 7 13 -14 5 -4 8 33 10 106 5 103 6 117 -28 l14 -33 -37
-1 c-105 -4 -80 -16 33 -16 72 0 117 2 100 4 -69 8 -75 12 -75 43 0 20 5 30
15 30 17 0 19 11 6 26 -5 5 -5 18 -1 29 7 17 9 17 9 3 1 -10 6 -19 11 -19 31
-4 40 -3 40 4 0 4 0 14 0 22 0 8 -7 15 -15 15 -8 0 -15 5 -15 11 0 17 24 5 35
-19z m388 9 c-5 -21 -43 -25 -43 -5 0 11 13 18 42 23 3 0 4 -8 1 -18z m62 9
c-4 -6 6 -11 22 -11 25 -2 25 -2 -7 -8 -41 -8 -72 -3 -64 11 3 5 12 7 20 4 8
-3 14 -1 14 4 0 6 5 10 11 10 5 0 7 -4 4 -10z m302 -25 c-20 -19 -33 -20 -17
0 7 8 9 15 4 15 -5 0 -2 5 6 10 21 13 26 -6 7 -25z m81 13 c-2 -13 4 -28 12
-35 8 -7 11 -12 5 -13 -22 0 -33 16 -28 43 6 32 16 37 11 5z m1062 12 c0 -5
-2 -10 -4 -10 -3 0 -8 5 -11 10 -3 6 -1 10 4 10 6 0 11 -4 11 -10z m-2519 -10
c-19 -5 -44 -4 -55 0 -15 6 -5 9 34 8 50 0 52 -1 21 -8z m794 -9 c3 -8 0 -19
-6 -25 -9 -8 -10 -7 -4 4 8 13 7 13 -9 1 -20 -17 -42 -2 -33 23 7 19 45 17 52
-3z m68 13 c12 -13 -3 -21 -28 -17 -13 3 -22 9 -19 14 6 10 38 12 47 3z m1494
0 c-3 -3 -12 -4 -19 -1 -8 3 -5 6 6 6 11 1 17 -2 13 -5z m-327 -14 c0 -5 -2
-10 -4 -10 -3 0 -8 5 -11 10 -3 6 -1 10 4 10 6 0 11 -4 11 -10z m-25 -10 c3
-5 1 -10 -4 -10 -6 0 -11 5 -11 10 0 6 2 10 4 10 3 0 8 -4 11 -10z m-1975 -15
c0 -8 -4 -15 -9 -15 -5 0 -11 7 -15 15 -3 9 0 15 9 15 8 0 15 -7 15 -15z
m1950 -13 c0 -15 -2 -15 -10 -2 -13 20 -13 33 0 25 6 -3 10 -14 10 -23z m280
19 c0 -5 -9 -7 -20 -4 -11 3 -20 7 -20 9 0 2 9 4 20 4 11 0 20 -4 20 -9z m180
-4 c0 -7 -9 -13 -20 -14 -16 -1 -17 1 -7 12 15 18 27 19 27 2z m-2464 -24
c-10 -10 -19 5 -10 18 6 11 8 11 12 0 2 -7 1 -15 -2 -18z m544 12 c0 -8 -4
-15 -10 -15 -5 0 -7 7 -4 15 4 8 8 15 10 15 2 0 4 -7 4 -15z m380 5 c0 -5 -4
-10 -10 -10 -5 0 -10 5 -10 10 0 6 5 10 10 10 6 0 10 -4 10 -10z m70 -11 c0
-5 -11 -4 -24 1 -13 5 -27 6 -32 2 -4 -4 -4 -2 -1 4 7 13 57 6 57 -7z m350 16
c0 -2 -7 -8 -15 -15 -12 -10 -15 -10 -15 2 0 8 7 15 15 15 8 0 15 -1 15 -2z
m-460 -15 c0 -5 -4 -10 -10 -10 -5 0 -10 5 -10 10 0 6 5 10 10 10 6 0 10 -4
10 -10z m520 -11 c0 -19 2 -20 18 -8 14 11 15 11 5 -1 -10 -11 -9 -17 4 -32
15 -17 15 -18 -10 -18 -29 0 -38 -20 -9 -20 16 -1 16 -2 -1 -14 -12 -9 -14
-16 -7 -21 5 -3 7 -11 4 -17 -4 -6 -10 -5 -15 3 -6 10 -9 8 -9 -8 0 -16 -4
-21 -15 -17 -8 4 -15 2 -15 -4 0 -5 -9 -12 -21 -15 -16 -4 -18 -3 -9 8 7 8 8
20 4 26 -4 7 -3 9 3 6 6 -4 13 -1 16 6 3 9 -5 13 -24 12 -29 0 -40 -19 -16
-28 6 -3 2 -6 -10 -6 -12 -1 -24 3 -28 8 -3 6 -17 6 -35 1 -23 -7 -30 -5 -30
5 0 9 7 11 22 7 19 -5 20 -4 7 10 -14 15 -46 17 -67 4 -6 -3 -13 -2 -17 3 -3
6 -12 8 -20 4 -11 -4 -13 -1 -9 11 4 10 13 15 20 12 7 -3 15 -2 18 2 3 4 -4 8
-14 9 -11 1 -22 -2 -25 -7 -3 -5 -13 -7 -23 -4 -13 5 -14 4 -4 -4 11 -7 8 -10
-12 -14 -14 -3 -26 -1 -26 4 0 5 -12 2 -27 -5 -16 -8 -39 -18 -53 -22 -22 -7
-23 -6 -11 9 8 9 9 16 3 16 -6 0 -14 10 -17 21 -6 17 -9 19 -16 8 -7 -11 -9
-10 -9 3 0 14 9 18 48 18 26 0 54 1 62 1 8 0 26 0 40 0 54 -2 104 6 108 17 4
14 32 16 32 3 0 -5 -6 -12 -12 -15 -7 -3 -2 -3 12 0 14 3 30 13 37 21 10 13
14 11 30 -13 10 -16 24 -30 31 -32 8 -1 11 2 8 7 -3 5 3 11 14 14 11 3 20 1
20 -4 0 -5 5 -9 11 -9 6 0 8 7 5 16 -3 8 -2 13 3 10 20 -13 19 25 -2 39 l-21
15 27 0 c21 0 27 -5 27 -21z m136 -1 c6 -19 8 -20 13 -7 4 13 9 14 17 5 7 -8
5 -17 -8 -30 -17 -19 -18 -18 -27 5 l-9 24 -11 -28 c-6 -16 -9 -32 -6 -37 3
-4 -2 -10 -10 -14 -18 -6 -21 19 -4 30 8 4 6 10 -6 17 -12 7 -20 5 -27 -4 -8
-11 -9 -11 -5 1 2 8 11 14 20 14 10 -1 13 4 10 14 -4 10 -2 13 5 8 7 -4 15 -1
18 8 9 23 21 20 30 -6z m197 2 c-10 -11 -19 -20 -21 -20 -1 0 2 9 8 20 6 11
15 20 20 20 6 0 2 -9 -7 -20z m223 3 c-4 -23 -56 -31 -56 -9 0 8 12 16 28 19
15 2 28 5 29 6 1 0 0 -7 -1 -16z m-129 -9 c7 3 13 -2 14 -12 0 -16 1 -16 7 1
7 16 9 16 27 3 20 -15 20 -15 -2 -16 -13 0 -32 -9 -43 -20 -27 -27 -33 -25
-26 5 5 18 2 25 -8 25 -7 0 -19 7 -26 15 -11 14 -10 14 15 5 16 -6 34 -9 42
-6z m-710 0 c-3 -3 -12 -4 -19 -1 -8 3 -5 6 6 6 11 1 17 -2 13 -5z m350 0 c-3
-3 -12 -4 -19 -1 -8 3 -5 6 6 6 11 1 17 -2 13 -5z m229 -11 c-2 -9 -9 -19 -17
-21 -8 -3 -17 -9 -20 -14 -3 -5 -9 -3 -12 6 -4 10 -1 16 9 16 8 0 17 7 20 15
8 20 23 19 20 -2z m849 7 c-3 -5 -11 -10 -16 -10 -6 0 -7 5 -4 10 3 6 11 10
16 10 6 0 7 -4 4 -10z m-2339 -27 c-6 -6 -36 9 -36 18 0 5 9 4 20 -3 10 -7 18
-14 16 -15z m2290 1 c-11 -8 -26 -14 -33 -14 -7 0 -10 -6 -7 -14 7 -18 -27
-31 -38 -14 -4 7 -8 9 -8 4 0 -15 -30 16 -30 31 0 10 13 13 57 11 40 -2 58 1
61 10 2 7 7 10 11 7 3 -4 -3 -13 -13 -21z m-736 12 c0 -3 -4 -8 -10 -11 -5 -3
-10 -1 -10 4 0 6 5 11 10 11 6 0 10 -2 10 -4z m25 -16 c-3 -5 -12 -10 -18 -10
-7 0 -6 4 3 10 19 12 23 12 15 0z m765 0 c0 -5 -2 -10 -4 -10 -3 0 -8 5 -11
10 -3 6 -1 10 4 10 6 0 11 -4 11 -10z m-950 -10 c0 -5 -4 -10 -9 -10 -6 0 -13
5 -16 10 -3 6 1 10 9 10 9 0 16 -4 16 -10z m656 -17 c-10 -10 -19 5 -10 18 6
11 8 11 12 0 2 -7 1 -15 -2 -18z m-536 -4 c0 -5 -7 -9 -15 -9 -8 0 -15 7 -15
15 0 9 6 12 15 9 8 -4 15 -10 15 -15z m787 5 c-3 -3 -12 -4 -19 -1 -8 3 -5 6
6 6 11 1 17 -2 13 -5z m-2220 -10 c-3 -3 -12 -4 -19 -1 -8 3 -5 6 6 6 11 1 17
-2 13 -5z m1483 2 c0 -2 -7 -6 -15 -10 -8 -3 -15 -1 -15 4 0 6 7 10 15 10 8 0
15 -2 15 -4z m-320 -16 c0 -5 -4 -10 -10 -10 -5 0 -10 5 -10 10 0 6 5 10 10
10 6 0 10 -4 10 -10z m-1250 -26 c0 -17 -22 -14 -28 4 -2 7 3 12 12 12 9 0 16
-7 16 -16z m697 10 c-3 -3 -12 -4 -19 -1 -8 3 -5 6 6 6 11 1 17 -2 13 -5z
m-997 -19 c-7 -9 -15 -13 -17 -11 -7 7 7 26 19 26 6 0 6 -6 -2 -15z m256 6
c-3 -5 -54 -9 -113 -8 -84 0 -97 1 -58 7 75 10 177 11 171 1z m1828 -7 c23 -9
20 -23 -4 -17 -11 3 -20 9 -20 14 0 11 3 11 24 3z m53 0 c-3 -3 -12 -4 -19 -1
-8 3 -5 6 6 6 11 1 17 -2 13 -5z m-584 -11 c-7 -2 -19 -2 -25 0 -7 3 -2 5 12
5 14 0 19 -2 13 -5z m-1329 -18 c6 -16 -18 -20 -49 -9 -13 5 -14 8 -3 15 21
13 45 10 52 -6z m43 9 c-3 -3 -12 -4 -19 -1 -8 3 -5 6 6 6 11 1 17 -2 13 -5z
m1286 -28 c-4 -22 -1 -25 28 -29 19 -2 5 -4 -31 -4 -36 0 -53 2 -37 4 21 3 27
10 27 29 0 13 4 24 9 24 4 0 6 -11 4 -24z m-375 4 c25 0 11 -18 -17 -22 -23
-3 -31 0 -35 15 -4 15 -1 18 17 13 12 -3 28 -6 35 -6z m95 -10 c20 0 27 -3 20
-8 -17 -11 -83 -2 -83 10 0 6 7 7 16 4 9 -3 30 -6 47 -6z m174 -13 c-1 -5 -6
-8 -10 -8 -4 1 -24 1 -44 2 -24 0 -32 3 -21 7 24 10 79 9 75 -1z m-97 -1 c0
-2 -9 -6 -20 -9 -11 -3 -18 -1 -14 4 5 9 34 13 34 5z m-852 -71 c-3 -3 -9 2
-12 12 -6 14 -5 15 5 6 7 -7 10 -15 7 -18z m62 11 c0 -11 -19 -15 -25 -6 -3 5
1 10 9 10 9 0 16 -2 16 -4z m139 -13 c-7 -10 -15 -20 -16 -22 -2 -2 -3 5 -3
17 0 14 6 22 16 22 14 0 15 -3 3 -17z m-111 -23 c13 0 13 -3 4 -12 -10 -10
-15 -10 -22 2 -5 8 -9 20 -9 25 0 6 3 4 6 -2 2 -7 12 -13 21 -13z m1790 13
c-10 -2 -28 -2 -40 0 -13 2 -5 4 17 4 22 1 32 -1 23 -4z m-1730 -45 c-24 -20
-34 -22 -43 -8 -3 6 1 10 9 10 9 0 13 7 11 19 -3 18 -1 19 20 9 l25 -11 -22
-19z m-388 21 c0 -6 -7 -8 -17 -5 -9 4 -20 1 -24 -6 -4 -7 -11 -9 -16 -5 -9
10 16 27 40 27 9 0 17 -5 17 -11z m40 1 c0 -5 -7 -7 -15 -4 -8 4 -15 8 -15 10
0 2 7 4 15 4 8 0 15 -4 15 -10z m675 -1 c20 -8 20 -8 0 -9 -11 -1 -35 -3 -52
-4 -18 -2 -37 2 -43 10 -9 10 -3 13 32 12 23 0 52 -4 63 -9z m70 1 c-3 -5 -15
-10 -26 -10 -10 0 -19 5 -19 10 0 6 12 10 26 10 14 0 23 -4 19 -10z m-858 -6
c-10 -10 -77 -13 -77 -3 0 5 19 9 42 9 23 0 39 -3 35 -6z m576 -11 c-3 -9 -13
-11 -25 -7 -14 4 -18 2 -14 -5 4 -7 -1 -11 -13 -11 -10 0 -26 -3 -35 -6 -9 -4
-16 -1 -16 6 0 6 9 14 20 17 11 3 20 9 20 13 0 4 15 8 34 7 24 -1 32 -5 29
-14z m347 6 c-12 -8 -12 -10 5 -8 11 1 25 1 32 0 17 -1 4 -31 -13 -31 -8 0
-14 -4 -14 -9 0 -10 -47 -8 -57 3 -13 13 17 56 39 56 19 0 20 -2 8 -11z m372
5 c10 -3 15 -13 13 -29 -1 -16 3 -25 11 -25 8 0 14 -5 14 -10 0 -16 -33 -7
-52 14 -18 19 -18 19 -18 -2 0 -12 -4 -22 -10 -22 -5 0 -10 11 -10 25 0 21 -5
25 -29 25 -16 0 -31 6 -35 15 -4 12 5 15 47 14 29 0 59 -3 69 -5z m-1449 -11
c-7 -2 -19 -2 -25 0 -7 3 -2 5 12 5 14 0 19 -2 13 -5z m774 -8 c0 -18 -19 -15
-25 3 -2 7 3 12 11 12 7 0 14 -7 14 -15z m54 8 c-11 -5 -11 -7 0 -14 10 -6 7
-8 -8 -6 -17 1 -19 4 -11 14 6 7 16 13 22 12 6 0 5 -3 -3 -6z m467 -5 c14 -14
16 -28 2 -28 -5 0 -14 9 -20 20 -12 22 -1 27 18 8z m390 -6 c2 -7 -5 -12 -17
-12 -14 0 -19 5 -14 15 6 17 25 15 31 -3z m-458 -2 c-36 -12 -60 -12 -60 0 0
6 19 10 43 9 36 -1 38 -2 17 -9z m-346 -15 c-4 -9 0 -15 10 -15 9 0 16 5 16
10 0 12 57 13 64 1 3 -4 -6 -6 -21 -3 -18 3 -24 1 -19 -7 10 -16 -12 -41 -36
-41 -10 0 -17 4 -14 9 12 19 -30 5 -42 -14 -13 -19 -13 -19 -9 3 4 15 -2 27
-16 38 -12 9 -15 14 -6 11 8 -3 26 1 40 9 32 17 40 17 33 -1z m889 -16 c-9 -9
-12 -7 -10 9 1 14 5 18 11 12 7 -7 6 -14 -1 -21z m-393 11 c0 -5 -5 -10 -11
-10 -5 0 -7 5 -4 10 3 6 8 10 11 10 2 0 4 -4 4 -10z m-190 -4 c0 -11 -19 -15
-25 -6 -3 5 1 10 9 10 9 0 16 -2 16 -4z m-395 -19 c6 0 9 -13 7 -29 -5 -33
-22 -38 -23 -5 0 12 -3 16 -6 9 -3 -8 -11 -5 -24 10 -10 14 -18 18 -19 10 0
-7 -5 -10 -11 -6 -18 11 13 24 41 17 13 -4 29 -6 35 -6z m1232 1 c7 -1 9 -6 6
-11 -4 -6 0 -8 9 -4 28 10 29 -5 2 -20 -36 -18 -61 -16 -84 7 -31 31 -25 44
18 36 20 -4 42 -8 49 -8z m-672 -8 c3 -5 2 -10 -4 -10 -5 0 -13 5 -16 10 -3 6
-2 10 4 10 5 0 13 -4 16 -10z m-235 -12 c0 -4 -8 -11 -17 -16 -13 -7 -23 -4
-37 9 -18 17 -17 18 18 16 20 -1 36 -5 36 -9z m43 -5 c-7 -2 -19 -2 -25 0 -7
3 -2 5 12 5 14 0 19 -2 13 -5z m-423 -24 c0 -5 -4 -9 -10 -9 -5 0 -10 7 -10
16 0 8 5 12 10 9 6 -3 10 -10 10 -16z m1350 11 c0 -5 -8 -10 -17 -10 -15 0
-16 2 -3 10 19 12 20 12 20 0z m-80 -44 c0 -9 -32 -36 -42 -36 -7 0 -3 9 8 19
18 19 34 26 34 17z m100 0 c0 -3 -4 -8 -10 -11 -5 -3 -10 -1 -10 4 0 6 5 11
10 11 6 0 10 -2 10 -4z m507 -2 c-3 -3 -12 -4 -19 -1 -8 3 -5 6 6 6 11 1 17
-2 13 -5z m-569 -41 c-10 -2 -26 -2 -35 0 -10 3 -2 5 17 5 19 0 27 -2 18 -5z
m52 -56 c0 -11 -1 -18 -3 -16 -1 2 -8 11 -15 20 -9 13 -9 16 3 16 8 0 15 -9
15 -20z m-1 -129 c1 -4 -5 -5 -13 -2 -8 3 -12 13 -8 27 5 20 6 20 13 1 4 -10
8 -22 8 -26z"/>
<path d="M2561 1121 c-19 -12 -10 -30 11 -22 10 3 14 11 10 18 -5 7 -13 9 -21
4z"/>
<path d="M2260 772 c0 -4 16 -12 35 -18 37 -12 48 -1 16 16 -23 12 -51 13 -51
2z"/>
<path d="M2347 773 c-12 -12 -7 -33 7 -33 8 0 13 7 12 15 -3 19 -11 27 -19 18z"/>
<path d="M2160 756 c0 -9 7 -12 21 -9 16 4 17 8 7 14 -19 13 -28 11 -28 -5z"/>
<path d="M820 730 c0 -5 5 -10 10 -10 6 0 10 5 10 10 0 6 -4 10 -10 10 -5 0
-10 -4 -10 -10z"/>
<path d="M528 662 c-10 -2 -18 -8 -18 -13 0 -17 299 -8 313 9 9 12 -11 13
-133 10 -80 -1 -153 -4 -162 -6z"/>
<path d="M1158 503 c7 -3 16 -2 19 1 4 3 -2 6 -13 5 -11 0 -14 -3 -6 -6z"/>
<path d="M1875 491 c-3 -5 10 -9 30 -8 19 1 35 5 35 10 0 10 -58 9 -65 -2z"/>
<path d="M1170 710 c-12 -8 -9 -10 13 -10 15 0 27 5 27 10 0 13 -20 13 -40 0z"/>
<path d="M1384 665 c21 -16 32 -13 21 4 -3 6 -14 11 -23 11 -15 -1 -15 -2 2
-15z"/>
<path d="M2380 1820 c0 -11 6 -20 14 -20 24 0 26 15 5 28 -16 11 -19 9 -19 -8z"/>
<path d="M2412 1708 c5 -15 28 -23 28 -10 0 5 -7 13 -16 16 -10 4 -14 1 -12
-6z"/>
<path d="M2168 1625 c3 -25 9 -35 22 -35 28 0 31 26 6 49 -30 28 -33 27 -28
-14z"/>
<path d="M1948 1460 c-67 -6 -84 -17 -40 -26 18 -4 32 -10 32 -15 0 -12 92 -9
108 3 8 7 12 7 12 -1 0 -16 40 -14 46 3 3 8 18 16 35 20 16 3 29 10 29 16 0
11 -98 11 -222 0z"/>
<path d="M295 1410 c-3 -5 1 -10 10 -10 9 0 13 5 10 10 -3 6 -8 10 -10 10 -2
0 -7 -4 -10 -10z"/>
<path d="M2129 1356 c-3 -3 -55 -6 -117 -7 -62 -1 -112 -5 -112 -10 0 -5 6 -9
14 -9 19 0 26 -32 26 -117 0 -42 4 -73 10 -73 6 0 10 29 10 68 0 56 3 69 20
80 16 10 20 10 18 0 -2 -7 -7 -16 -13 -20 -6 -5 -6 -8 1 -8 7 0 12 -18 12 -42
1 -71 2 -78 12 -78 6 0 10 30 10 69 0 51 4 70 15 74 10 4 16 -3 20 -27 4 -18
6 -39 5 -47 -5 -32 1 -69 10 -69 6 0 10 32 10 76 0 47 4 73 10 69 6 -3 10 1
10 10 0 9 12 27 26 40 15 14 23 25 17 25 -5 0 -12 -2 -14 -4z"/>
<path d="M2091 1184 c0 -11 3 -14 6 -6 3 7 2 16 -1 19 -3 4 -6 -2 -5 -13z"/>
<path d="M1937 1070 c6 -24 16 -25 37 -4 14 13 16 13 16 1 0 -23 25 -27 40 -7
13 19 36 18 25 -1 -7 -10 6 -12 29 -3 9 3 16 12 16 19 0 9 -23 13 -84 14 -80
1 -84 0 -79 -19z"/>
<path d="M0 760 c0 -24 4 -31 16 -28 18 3 40 48 24 48 -6 0 -10 -4 -10 -10 0
-5 -5 -10 -11 -10 -5 0 -8 4 -4 9 3 5 1 12 -5 16 -6 4 -10 -6 -10 -25z"/>
</g>
</svg>
